<?xml version="1.0" encoding="utf-8"?>
<!-- Generator: Adobe Illustrator 18.0.0, SVG Export Plug-In . SVG Version: 6.00 Build 0)  -->
<!DOCTYPE svg PUBLIC "-//W3C//DTD SVG 1.1//EN" "http://www.w3.org/Graphics/SVG/1.1/DTD/svg11.dtd">
<svg version="1.1" id="Layer_1" xmlns="http://www.w3.org/2000/svg" xmlns:xlink="http://www.w3.org/1999/xlink" x="0px" y="0px"
	 viewBox="-0.1 417.3 966.7 165.5" enable-background="new -0.1 417.3 966.7 165.5" xml:space="preserve">
<g>
	<path fill="#FFFFFF" d="M40.3,457l68.9,36.1c0.9,0.5,2,0.5,2.9,0l68.9-36.1c1.4-0.8,1.4-2.6,0-3.3L112,417.6c-0.9-0.5-2-0.5-2.9,0
		l-68.9,36.1C38.9,454.4,38.9,456.2,40.3,457z M21.2,490.4l88,46c0.9,0.5,2,0.5,2.9,0l88-46c1.4-0.8,1.4-2.6,0-3.3l-25.3-13.2
		L112,506.8c-0.9,0.5-2,0.5-2.9,0L46.5,474l-25.3,13.2C19.8,487.8,19.8,489.6,21.2,490.4z M220.1,522.4L192.5,508L112,550.2
		c-0.9,0.5-2,0.5-2.9,0L28.6,508L0.9,522.4c-1.4,0.8-1.4,2.6,0,3.3L109,582.4c0.9,0.5,2,0.5,2.9,0L220,525.7
		C221.5,525,221.5,523.2,220.1,522.4z"/>
</g>
<g>
	<path fill="#FFFFFF" d="M639.9,537.4c-4.8,3.9-11.3,6.5-19.4,6.5c-9.5,0-17-3.3-20.7-7.8v36.1h-19.1V462.6h16.4l1.2,8.7
		c4.7-7.4,13.5-10.5,22.3-10.5c8,0,14.3,2.7,19.2,6.8c9.5,7.8,14.1,19.7,14.1,34.6C654,517.6,649.4,529.6,639.9,537.4z M629.7,483
		c-2.7-3.5-6.9-6.3-12.8-6.3c-14.9,0-18,14.1-18,25.6s3,25.4,18,25.4c6,0,10.1-2.7,12.8-6.3c3.9-5.1,5-12.3,5-19.2
		C634.6,495.5,633.6,488.3,629.7,483z"/>
	<path fill="#FFFFFF" d="M268.4,541.8v-108h19.7v89.5h37.3l10.8,18.6L268.4,541.8L268.4,541.8z"/>
	<path fill="#FFFFFF" d="M549.5,541.8l-1.2-8.7c-4.7,7.4-13.5,10.5-22.3,10.5c-8,0-14.4-2.7-19.2-6.6c-9.5-7.8-14-19.7-14-34.6
		c0-15.5,4.7-27.5,14.1-35.3c4.8-3.9,11.3-6.3,19.2-6.3c10.1,0,17.3,3.3,20.7,7.5v-34.4h18.9v108H549.5z M530,476.7
		c-5.9,0-10.1,2.7-12.8,6.2c-3.9,5.1-5,12.3-5,19.1s1.1,14.1,5,19.2c2.7,3.5,6.9,6.2,12.8,6.2c14.9,0,17.9-14.1,17.9-25.6
		S544.9,476.7,530,476.7z"/>
	<path fill="#FFFFFF" d="M809.1,533.2c-7.5-5.1-17.7-5.3-25.7-5.3h-13.1c-3.9,0-8.7-1.1-8.7-5.7c0-2.6,2.1-4.5,3.9-5.6
		c3.9,1.4,8.4,2.1,12.8,2.1c17,0,31.6-10.4,31.6-27.1c0-12.5-9.8-16.4-9.9-16.7h16.4l8.3-14.1h-46.3c-17.7,0-32.3,10.2-32.3,29
		c0,8.1,3,14.6,8,19.4c-6.3,3.9-9.5,9.3-9.5,15.9c0,5.1,2.9,10.8,8,13.5c-9.2,4.5-12,16.4-6.9,26.5c8.9,12.2,22.4,13.5,35,13.5
		c17.6,0,38.2-5.6,38.2-26.5C818.7,544.7,815.8,538,809.1,533.2z M778.4,475c8.7,0,14,6.2,14,14.7c0,8.6-5.3,14.6-14,14.6
		c-8.7,0-14-6-14-14.6C764.4,481.2,769.7,475,778.4,475z M779.7,563.7c-7.5,0-20-0.9-20-11c0-5,3-8.6,7.2-9.8h14.9
		c7.2,0,18.8,0,18.8,9.8C800.6,563.3,787.3,563.7,779.7,563.7z"/>
	<path fill="#FFFFFF" d="M933.2,543.9c-4.4,0-9.5-0.6-13.7-2c-10.1-3.3-18.5-10.8-20.7-21.4l15.5-5.6c1.7,9.2,10.5,13.5,19.1,13.5
		c4.8,0,8.4-0.6,11.3-2.3c2.6-1.5,3.9-3.6,3.9-6.3c0-4.8-3-7.4-8.1-8.3l-18.9-3.3c-12.9-2.3-20-11.4-20-21.4
		c0-15.5,14-26.2,31.9-26.2c15.3,0,27.7,6.5,31.4,20.7l-15.6,6c-1.7-8-8.9-11.7-15.6-11.7c-2.6,0-5.1,0.2-7.8,1.2
		c-3.5,1.4-6,3.8-6,7.7c0,5.6,4.8,6.5,9.2,7.2l15.8,3c12.5,2.4,22,10.4,22,22.7C966.3,533.7,953.5,543.9,933.2,543.9z"/>
	<path fill="#FFFFFF" d="M403.7,507.1h-54c0.2,11.9,9.2,20,20.1,20c10.7,0,16.2-5.4,19.1-12.5l14.9,6.3
		c-3.9,11.9-15.8,22.3-33.7,22.3c-23,0-39.7-16.8-39.7-41.5c0-22.3,13.7-41.8,37.9-41.8c13.2,0,24.1,5.7,30.4,16.5
		c4.2,7.2,5.6,15.5,5.4,24.1C404.1,504.5,403.7,507.1,403.7,507.1z M380.5,480c-2.7-2.9-6.9-4.7-12.3-4.7c-10.1,0-17.7,7.2-18.6,18
		h35.5C385.1,487.8,383.6,483.3,380.5,480z"/>
	<path fill="#FFFFFF" d="M480.7,522.3c0,3.6,2.1,5,5.3,5c1.2,0,2.3-0.3,2.3-0.3v13.4c-2.1,1.5-4.4,2.7-9,2.7
		c-8.3,0-14-5.1-14.6-11.1c-4.4,6.6-12.8,11.9-24.1,11.9c-18.9,0-28.6-11.9-28.6-24.8c0-15,11.7-23.8,26.8-24.8l23.3-1.7v-3.2
		c0-8.4-5.6-13.2-14.9-13.2c-10.7,0-15.8,5.1-17.1,13.1l-15.9-3.5c1.2-13.2,13.8-25,33.7-25c20.6,0,33.1,10.1,33.1,30.1L480.7,522.3
		L480.7,522.3z M462,506.6l-20.1,1.5c-5.7,0.5-11.4,3.9-11.4,10.4c0,6.2,5,9.9,11.3,9.9c11.9,0,20.3-6.5,20.3-18.2V506.6z"/>
	<path fill="#FFFFFF" d="M728.6,522.3c0,3.6,2.1,5,5.3,5c1.2,0,2.3-0.3,2.3-0.3v13.4c-2.1,1.5-4.4,2.7-9,2.7
		c-8.3,0-14-5.1-14.6-11.1c-4.4,6.6-12.8,11.9-24.1,11.9c-18.9,0-28.6-11.9-28.6-24.8c0-15,11.7-23.8,26.8-24.8l23.3-1.7v-3.2
		c0-8.4-5.6-13.2-14.9-13.2c-10.7,0-15.8,5.1-17.1,13.1l-15.9-3.5c1.2-13.2,13.8-25,33.7-25c20.6,0,33.1,10.1,33.1,30.1L728.6,522.3
		L728.6,522.3z M710.1,506.6l-20.1,1.5c-5.7,0.5-11.4,3.9-11.4,10.4c0,6.2,5,9.9,11.3,9.9c11.9,0,20.3-6.5,20.3-18.2V506.6z"/>
	<path fill="#FFFFFF" d="M893.5,507.1h-54c0.2,11.9,9.2,20,20.1,20c10.7,0,16.2-5.4,19.1-12.5l14.9,6.3
		c-3.9,11.9-15.8,22.3-33.7,22.3c-23,0-39.7-16.8-39.7-41.5c0-22.3,13.7-41.8,37.9-41.8c13.2,0,24.1,5.7,30.4,16.5
		c4.2,7.2,5.6,15.5,5.4,24.1C894,504.5,893.5,507.1,893.5,507.1z M870.4,480c-2.7-2.9-6.9-4.7-12.3-4.7c-10.1,0-17.7,7.2-18.6,18
		h35.6C874.9,487.8,873.4,483.3,870.4,480z"/>
</g>
</svg>
