<?xml version="1.0" encoding="utf-8"?>
<!-- Generator: Adobe Illustrator 18.0.0, SVG Export Plug-In . SVG Version: 6.00 Build 0)  -->
<!DOCTYPE svg PUBLIC "-//W3C//DTD SVG 1.1//EN" "http://www.w3.org/Graphics/SVG/1.1/DTD/svg11.dtd">
<svg version="1.1" id="Monotone_Logo" xmlns="http://www.w3.org/2000/svg" xmlns:xlink="http://www.w3.org/1999/xlink" x="0px"
	 y="0px" viewBox="-0.1 424.4 1000.1 151.2" enable-background="new -0.1 424.4 1000.1 151.2" xml:space="preserve">
<path fill="#FFFFFF" d="M242.8,506.4v-47h11v47c0,14.5,7.8,25.2,23.5,25.2s23.5-10.8,23.5-25.2v-47H312v47c0,21-12.5,36-34.8,36
	C255.8,542.4,242.8,527.6,242.8,506.4z"/>
<path fill="#FFFFFF" d="M341.8,540.6h-11v-81.2h11V540.6z"/>
<path fill="#FFFFFF" d="M428,532.1c0,0-9,10.2-28.2,10.2c-25.5,0-42.5-18.8-42.5-42.2c0-23.8,17-42.5,42.5-42.5c19.2,0,28.2,10.2,28.2,10.2
	l-6.2,8.8c0,0-8.5-8.5-21.8-8.5c-18.5,0-31.2,14.2-31.2,32c0,17.5,12.8,31.8,31.2,31.8c13.8,0,21.8-8.5,21.8-8.5L428,532.1z"/>
<path fill="#FFFFFF" d="M453.8,502.6l43.5-43.2h13.5v1.5l-32.2,32.5l32.2,45.5v1.5h-13l-27.2-39L454,518.1v22.2h-11v-81h11v43.2H453.8z"/>
<path fill="#FFFFFF" d="M525.8,524.1c0,0,9,7.8,24.2,7.8c13.8,0,19.5-5.2,19.5-12.8c0-7-4.5-10.5-21.5-15.2c-19.5-5.5-28.2-11.5-28.2-24
	c0-14,11.2-22.2,30.5-22.2c20.2,0,29.2,7.8,29.2,7.8l-6,9.2c0,0-8.2-6.8-23.2-6.8c-11,0-18.8,4.2-18.8,11.8c0,6,5,9.2,21.5,13.8
	c21.2,5.8,28.5,13,28.5,25.2c0,13.5-9.5,23.8-31.2,23.8c-21,0-30.5-10-30.5-10L525.8,524.1z"/>
<path fill="#FFFFFF" d="M596.8,459.4h34c20.2,0,32.5,9.5,32.5,27.2c0,18.5-13.2,28.2-33.3,28.2h-22.2v25.5h-11V459.4z M630.5,469.6H608v35.5h22.5
	c13,0,21.5-5.5,21.5-18C652,475.1,643.5,469.6,630.5,469.6z"/>
<path fill="#FFFFFF" d="M742.8,486.6c0,13-7.2,21.5-18.2,25.2v0.5l21,25.8v2.2h-12.2L712,513.9h-24.8v26.5h-11v-81H710
	C730.2,459.4,742.8,468.9,742.8,486.6z M709.8,469.6h-22.5v34.8H711c12,0,20.2-5.5,20.2-17.2S722.8,469.6,709.8,469.6z"/>
<path fill="#FFFFFF" d="M754,500.1c0-23.8,16.2-42.5,42-42.5c26,0,42.2,18.8,42.2,42.5c0,23.5-16.2,42.2-42.2,42.2C770.5,542.4,754,523.6,754,500.1
	z M827,500.1c0-17.8-12-32-31-32c-18.8,0-30.8,14.2-30.8,32c0,17.5,12,31.8,30.8,31.8C815,531.9,827,517.6,827,500.1z"/>
<path fill="#FFFFFF" d="M851.5,506.4v-47h11v47c0,14.5,7.8,25.2,23.5,25.2c15.7,0,23.5-10.8,23.5-25.2v-47h11.2v47c0,21-12.5,36-34.8,36
	C864.5,542.4,851.5,527.6,851.5,506.4z"/>
<path fill="#FFFFFF" d="M932.8,459.4h67.2v10.2h-28.2v71h-11v-71h-28V459.4z"/>
<path fill="#FFFFFF" d="M229.5,500.1c0-23.8-16.2-42.5-42.3-42.5c-25.8,0-42,18.8-42,42.5c0,23.5,16.3,42.2,42,42.2c10.2,0,19-3,25.8-8l9.2,8
	l7.3-8.5l-8.5-7.5C226.5,519.4,229.5,510.1,229.5,500.1z M187.2,531.9c-18.8,0-30.8-14-30.8-31.8s12-32,30.8-32c19,0,31,14.2,31,32
	c0,7.2-2,13.8-5.8,19.2l-11-9.5l-7.2,8.5l10.2,9C199.8,529.9,194,531.9,187.2,531.9z"/>
<path fill="#FFFFFF" d="M70,575.6c-4.2-1-10.5-3-17.2-6.2h-0.2l0,0c-1.8-0.8-14.5-6.5-27-17.2c-12.2-10.5-26.8-28.2-25.5-53
	c0.5-10.8,4-21.2,10.5-31.5c5-8.2,12-16.2,20.5-23.8c13.3-11.2,26.2-18.2,29-19.5c4.2,8.5,12,15,20.5,21.8
	c15.5,12.5,33,26.5,31.5,59c-0.8,15-7,28.5-18.8,40.2c-3.8-0.5-12.7-1.8-23-5.8c15-5.8,25-20.2,25-36.2c0-21.5-17.5-39-39-39
	s-39,17.5-39,39c0,4.5,0.8,8.8,2.2,12.8l0,0c0,0.2,5.8,20.8,36,34.8c7.2,3.5,15,6.5,23.5,8.5C75.2,564.1,72.2,569.9,70,575.6z
	 M56.2,525.9c-11.8,0-21.2-9.5-21.2-21.2s9.5-21.2,21.2-21.2s21.2,9.2,21.2,21S68,525.9,56.2,525.9z"/>
</svg>
