<?xml version="1.0" encoding="utf-8"?>
<!-- Generator: Adobe Illustrator 18.0.0, SVG Export Plug-In . SVG Version: 6.00 Build 0)  -->
<!DOCTYPE svg PUBLIC "-//W3C//DTD SVG 1.1//EN" "http://www.w3.org/Graphics/SVG/1.1/DTD/svg11.dtd">
<svg version="1.1" id="Layer_1" xmlns="http://www.w3.org/2000/svg" xmlns:xlink="http://www.w3.org/1999/xlink" x="0px" y="0px"
	 viewBox="0 1.2 267.9 67.3" enable-background="new 0 1.2 267.9 67.3" xml:space="preserve">
<path fill="#FFFFFF" d="M163.2,20.4c-4.2,0-7.6,1.1-11.2,2.9c0-10,0.2-18.8,0.4-22.1l-20.6,4v1.9l2,0.3c2.9,0.4,4,2.1,4.3,5.9
	c0.6,7.3,0.6,46.8,0,53.1c5.5,1.2,11.5,2.2,17.5,2.2c16.3,0,26.2-10.1,26.2-26.1C181.8,29.6,173.9,20.4,163.2,20.4z M156,65.2
	c-1.2,0-2.7-0.2-3.5-0.3c-0.3-4.4-0.5-22.7-0.5-38.6c1.9-0.6,3.2-0.8,4.8-0.8c6.8,0,10.6,7.8,10.6,17.7
	C167.4,55.7,162.7,65.2,156,65.2z M54.4,20.9l-3.2,0.9C48.4,12.4,44,7.1,35.6,7.1H24.9c-0.5,6-0.7,15.9-0.6,26.2l7.2-0.2
	c4.8-0.2,6.8-3.7,7.9-9h2.7v21.9h-2.7c-1.2-5.3-3.2-8.8-7.9-9l-7.2-0.2c0.1,7.9,0.3,14.5,0.6,18.5c0.5,5.8,2.1,8.4,6.2,9l3.7,0.4
	v2.6H0v-2.6l2.9-0.4c4.1-0.6,5.7-3.2,6.2-9c0.8-9.6,0.9-29.6,0-40.7C8.6,8.8,7,6.3,2.9,5.7L0,5.3V2.7h54.1L54.4,20.9z M71.7,19.9
	c15.4,0,23,10.4,23,24.2c0,13.4-8.6,24.4-24,24.4c-15.4,0-23-10.4-23-24.2C47.7,30.9,56.3,19.9,71.7,19.9z M70.9,22.9
	c-6.8,0-8.7,9.2-8.7,21.3c0,11.8,3,21.3,9.3,21.3c6.8,0,8.7-9.2,8.7-21.3C80.2,32.4,77.2,22.9,70.9,22.9z M185.6,44.6
	c0-12.7,8-24.7,23.9-24.7c12.9,0,19.1,9.6,19.1,22.1h-28.8c-0.3,11.4,5.4,19.7,16.4,19.7c4.8,0,7.5-1.2,10.4-3.4l1.4,1.6
	c-3.2,4.4-9.9,8.6-18.7,8.6C195.4,68.5,185.6,58.7,185.6,44.6z M199.9,38.8l14.4-0.3c0.1-6.4-1-15.5-6.1-15.5
	C203,22.9,200.1,31.6,199.9,38.8z M265.6,34.2l-2.4,0.6c-2.5-8.1-6.3-11.6-11.9-11.6c-3.7,0-6.4,2.8-6.4,6.8c0,4,3,6.1,11.7,9.5
	c8,3.1,11.2,6.7,11.2,13.2c0,9.7-7.4,15.7-19.7,15.7c-5.9,0-12.4-1.3-16.3-2.9l-0.4-13.5l2.4-0.6c3.4,9.4,7.8,12.8,13.6,12.8
	c4.9,0,7.7-3.5,7.7-7.2c0-3.6-2.1-5.8-9.9-8.6c-7.3-2.6-12.6-5.8-12.6-14c0-7.9,7-14.7,18.6-14.7c5.4,0,10.5,0.9,13.9,2.5
	L265.6,34.2z M129.9,33.8c-6.2-4.2-12.9-2.4-14.3-0.1c-0.5,7.5-0.4,19.1,0.1,24.9c0.3,3.8,1.4,5.5,4.3,5.9l3.7,0.3v2.6H95.2v-2.6
	l2-0.3c2.9-0.4,4-2.1,4.3-5.9c0.6-6.3,0.6-19.4,0-26.8c-0.3-3.8-1.4-5.5-4.3-5.9l-2-0.3v-1.9l20.5-4l-0.2,10.7
	c4.8-11,14.3-12.5,19.5-9.4L129.9,33.8z"/>
</svg>
