<?xml version="1.0" encoding="utf-8"?>
<!-- Generator: Adobe Illustrator 18.0.0, SVG Export Plug-In . SVG Version: 6.00 Build 0)  -->
<!DOCTYPE svg PUBLIC "-//W3C//DTD SVG 1.1//EN" "http://www.w3.org/Graphics/SVG/1.1/DTD/svg11.dtd">
<svg version="1.1" id="Layer_1" xmlns="http://www.w3.org/2000/svg" xmlns:xlink="http://www.w3.org/1999/xlink" x="0px" y="0px"
	 viewBox="0 326.5 1000 347.6" enable-background="new 0 326.5 1000 347.6" xml:space="preserve">
<path fill="#FFFFFF" d="M0,326.5h237.1c0,26.5,0,53.5,0,80c-14.7,0-29.4,0-44.7,0c0,62.4,0,124.1,0,186.5c14.7,0,29.4,0,44.7,0
	c0,25.3,0,50.6,0,75.9c-78.8,0-157.6,0-236.5,0v-75.9c14.7,0,28.8,0,43.5,0c0-61.8,0-124.1,0-185.9c-14.7,0-28.8,0-43.5,0v-80.6H0z"
	/>
<path fill="#FFFFFF" d="M248.2,405.9c48.2,0,97.1,0,145.9,0c0,16.5-0.6,33.5-0.6,50c14.7-14.7,30-30.6,50.6-38.2
	c35.3-13.5,75.3-12.9,110.6,1.2c26.5,10.6,44.1,37.6,44.7,66.5c1.2,35.9,0.6,71.8,1.2,107.6c8.8,0,18.2,0,27.1,0
	c-13.5-37.1-13.5-80.6,6.5-115.3s57.1-55.9,95.3-64.1c47.6-11.2,101.2-9.4,143.5,16.5c30,18.2,47.6,52.4,50.6,87.1
	c-33.5,3.5-66.5,7.1-100,11.2c-2.4-18.2-2.9-40.6-20-51.8c-24.1-15.9-60.6,0-63.5,29.4c-3.5,30.6-8.2,67.1,11.2,94.1
	c25.9,24.7,74.1,8.2,75.3-28.8c32.9,0,66.5,0,99.4,0c-4.1,23.5-12.4,47.1-28.8,64.7c-24.7,25.9-61.2,35.3-95.3,38.2h-38.2
	c-52.4-3.5-107.6-26.5-132.4-75.3c0,23.5,0,47.1,0,70.6c-60.6,0-120.6,0-181.2,0c-0.6-25.3-0.6-50.6-0.6-75.9c11.8,0,22.9,0,34.7,0
	c-1.8-31.2,4.7-62.9-3.5-93.5c-19.4-32.4-72.9-18.8-80.6,14.7c-4.1,25.9-0.6,51.8-1.8,77.6c11.8,0,23.5,0,35.3,0
	c0,25.3,0.6,50.6-0.6,75.9c-61.2-1.2-122.9,2.4-183.5-1.8c-1.8-24.7,0-49.4-0.6-74.1c10.6,0,21.8,0,32.4,0c0-37.1,0-74.1,0-111.8
	c-11.2,0-21.8,0-32.9,0C248.8,455.9,248.2,430.6,248.2,405.9z"/>
<path fill="#FFFFFF" d="M934.7,590.6c24.1-17.6,61.2-1.2,65.3,28.2v16.5c-4.7,26.5-38.2,44.1-62.4,29.4
	C909.4,650.6,908.2,606.5,934.7,590.6z"/>
</svg>
