<?xml version="1.0" encoding="utf-8"?>
<!-- Generator: Adobe Illustrator 18.0.0, SVG Export Plug-In . SVG Version: 6.00 Build 0)  -->
<!DOCTYPE svg PUBLIC "-//W3C//DTD SVG 1.1//EN" "http://www.w3.org/Graphics/SVG/1.1/DTD/svg11.dtd">
<svg version="1.1" id="Layer_1" xmlns="http://www.w3.org/2000/svg" xmlns:xlink="http://www.w3.org/1999/xlink" x="0px" y="0px"
	 viewBox="0 448.3 1000 99.8" enable-background="new 0 448.3 1000 99.8" xml:space="preserve">
<g>
	<path fill="#FFFFFF" d="M692.4,466.1H603l-23,63.5h17.4l17.4-48.4h21.6c2.4,0,3.8,1.9,2.8,4.2l-16,43.7h17.4l16-43.7c0.9-2.4,3.8-4.2,6.1-4.2h17.4
		c2.4,0,3.8,1.9,2.8,4.2l-16,43.7h17.4l18.3-50.3C705.6,471.8,700.8,466.1,692.4,466.1L692.4,466.1z M813.7,509.9
		c-0.9,2.4-3.8,4.2-6.1,4.2H786c-2.4,0-3.8-1.9-2.8-4.2l16-43.7h-17.4l-18.3,50.3c-2.8,7.1,1.9,13.2,10.3,13.2h39.5
		c6.1,0,12.2-3.8,14.1-8.9l19.8-54.6h-17.4L813.7,509.9L813.7,509.9z M523.5,509.9l1.4-4.2h52.2l5.6-15.1l3.8-10.8
		c2.8-7.1-1.9-13.2-10.3-13.2h-43.7c-6.1,0-12.2,3.8-14.1,8.9l-15.1,41.4c-2.8,7.1,1.9,13.2,10.3,13.2h55.5l5.6-15.1h-48
		C524,514.1,523,512.2,523.5,509.9L523.5,509.9z M532.5,485.9c0.9-2.4,3.8-4.2,6.1-4.2h26.3c2.4,0,3.8,1.9,2.8,4.2l-1.4,4.2h-34.8
		L532.5,485.9L532.5,485.9z M982.6,466.1l-8.9,24h-30.6l8.9-24h-17.4l-23,63.5H929l8.9-24.5H968l-8.5,24.5H977l23-63.5H982.6
		L982.6,466.1z M715.4,475.1l-19.8,54.6h17.4l16-43.7c0.9-2.4,3.8-4.2,6.1-4.2h30.6l5.6-15.1H730
		C723.4,466.1,717.3,469.9,715.4,475.1L715.4,475.1z M442.6,475.1l-6.6,17.4c-2.8,7.1,1.9,13.2,10.3,13.2h28.2
		c2.4,0,3.8,1.9,2.8,4.2s-3.8,4.2-6.1,4.2h-43.7l-5.6,15.1h54.6c6.1,0,12.2-3.8,14.1-8.9l6.6-17.4c2.8-7.1-1.9-13.2-10.3-13.2h-28.2
		c-2.4,0.5-3.3-1.4-2.4-3.8c0.5-2.4,3.3-4.7,5.6-4.7h43.7l5.6-15.1h-54.6C450.6,466.1,444.5,469.9,442.6,475.1L442.6,475.1z
		 M855.1,475.1l-6.6,17.4c-2.8,7.1,1.9,13.2,10.3,13.2h28.2c2.4,0,3.8,1.9,2.8,4.2s-3.8,4.2-6.1,4.2h-43.7l-5.6,15.1H889
		c6.1,0,12.2-3.8,14.1-8.9l6.6-17.4c2.8-7.1-1.9-13.2-10.3-13.2h-28.2c-2.4,0-3.8-1.9-2.8-4.2s3.8-4.2,6.1-4.2h43.7l5.6-15.1h-54.6
		C863.1,466.1,856.5,469.9,855.1,475.1z M370.6,462.8c-12.2-12.7-29.2-16.9-50.8-13.2c0,0-25.9,6.1-48.9,6.6
		c-9.9,0-17.9-2.8-24.9-4.2c3.8,6.1,9.4,10.3,16,12.7c6.1,2.4,14.6,5.6,10.8,11.8c-4.2,6.6-10.8,0.9-12.7-0.5
		c-6.1-4.7-8.9-8-20.2-14.6c-12.2-7.1-29.2-7.5-46.1-5.6c0,0,14.1,2.8,20.2,9.4c0,0-26.8-5.6-44.7,3.3c25.4,0.9,53.6,5.2,58.3,7.1
		c4.7,2.4,2.4,3.8-2.4,4.7c-11.3,2.4-32.5,3.3-45.6-0.5c-18.8-5.2-34.8-21.2-61.6-16.9c23.5,5.2,36.2,27.3,62.1,32.5
		c25.9,5.2,43.3-5.2,49.4-6.6c6.1-1.4,11.3,0.5,12.2,4.7c1.4,4.2-3.8,8.9-10.8,10.3c-5.2,0.9-7.1,0.9-16.5,1.9
		c-19.8,1.9-33.9-0.5-46.6-3.8c-24-6.6-40.9-22.1-48.9-26.3s-16.9-6.1-23.5-7.1c0,0,13.2,6.6,17.9,15.1c-11.8-4.2-28.7-7.1-51.3-2.4
		c-10.8,1.9-33.9,7.1-62.1,18.3c14.1,4.2,32,0.9,40,0.5c42.3-3.3,56.4,5.6,70.1,10.8c41.4,14.6,55.5,1.4,58.3,5.6
		c1.9,3.3-11.3,8.5-15.1,9.4c-18.8,3.3-27.8,0-44.7-3.8c8.5,8.5,24.9,14.6,43.3,14.1c18.8-0.9,38.6-3.8,54.6-10.3
		c18.8-8,26.3-10.3,34.8-12.7c3.8-0.9,16.5-4.2,19.3-0.9c1.4,1.9-0.9,3.8-5.2,5.6c-3.3,1.4-7.5,2.8-11.3,4.2
		c-8.9,3.3-26.3,9.9-31.5,14.1c0,0,24-3.8,47.5-3.8s39.5,5.2,57.4,11.8c19.3,7.1,35.7,4.7,49.9-7.1c12.7-10.8,18.8-23,18.3-37.6
		C385.7,484.5,380.5,472.7,370.6,462.8L370.6,462.8z M337.3,538.1c-22.1,0-40-17.9-40-40s17.9-40,40-40c22.1,0,40,17.9,40,40
		S359.4,538.1,337.3,538.1z M337.3,466.6c-17.4,0-31.5,14.1-31.5,31.5s14.1,31.5,31.5,31.5s31.5-14.1,31.5-31.5
		C369.2,480.7,355.1,466.6,337.3,466.6z M352.3,518.8c3.8-4.7,5.6-10.3,5.6-16.5c0-12.7-9.4-23.5-21.6-25.9c0.9-1.4,2.4-3.3,3.8-4.2
		c12.7,1.9,22.1,12.7,22.1,25.9C362.2,506.6,358.4,514.1,352.3,518.8z"/>
</g>
</svg>
